HIERARCHY
ROOT hip
{
  OFFSET 0 0 0
  CHANNELS 6 Xposition Yposition Zposition Zrotation Yrotation Xrotation
  JOINT abdomen
  {
    OFFSET 0 20.6881 -0.73152
    CHANNELS 3 Zrotation Xrotation Yrotation
    JOINT chest
    {
      OFFSET 0 11.7043 -0.48768
      CHANNELS 3 Zrotation Xrotation Yrotation
      JOINT neck
      {
        OFFSET 0 22.1894 -2.19456
        CHANNELS 3 Zrotation Xrotation Yrotation
        JOINT head
        {
          OFFSET -0.24384 7.07133 1.2192
          CHANNELS 3 Zrotation Xrotation Yrotation
          JOINT leftEye
          {
            OFFSET 4.14528 8.04674 8.04672
            CHANNELS 3 Zrotation Xrotation Yrotation
            End Site
            {
              OFFSET 1 0 0
            }
          }
          JOINT rightEye
          {
            OFFSET -3.6576 8.04674 8.04672
            CHANNELS 3 Zrotation Xrotation Yrotation
            End Site
            {
              OFFSET 1 0 0
            }
          }
        }
      }
      JOINT rCollar
      {
        OFFSET -2.68224 19.2634 -4.8768
        CHANNELS 3 Zrotation Xrotation Yrotation
        JOINT rShldr
        {
          OFFSET -8.77824 -1.95073 1.46304
          CHANNELS 3 Zrotation Xrotation Yrotation
          JOINT rForeArm
          {
            OFFSET -28.1742 -1.7115 0.48768
            CHANNELS 3 Zrotation Xrotation Yrotation
            JOINT rHand
            {
              OFFSET -22.5879 0.773209 7.07136
              CHANNELS 3 Zrotation Xrotation Yrotation
              JOINT rThumb1
              {
                OFFSET -1.2192 -0.487915 3.41376
                CHANNELS 3 Zrotation Xrotation Yrotation
                JOINT rThumb2
                {
                  OFFSET -3.37035 -0.52449 3.41376
                  CHANNELS 3 Zrotation Xrotation Yrotation
                  End Site
                  {
                    OFFSET -1.78271 -1.18214 1.43049
                  }
                }
              }
              JOINT rIndex1
              {
                OFFSET -7.75947 0.938293 5.60832
                CHANNELS 3 Zrotation Xrotation Yrotation
                JOINT rIndex2
                {
                  OFFSET -2.54057 -0.884171 1.56538
                  CHANNELS 3 Zrotation Xrotation Yrotation
                  End Site
                  {
                    OFFSET -1.62519 -0.234802 1.16502
                  }
                }
              }
              JOINT rMid1
              {
                OFFSET -8.24714 1.18213 3.41376
                CHANNELS 3 Zrotation Xrotation Yrotation
                JOINT rMid2
                {
                  OFFSET -3.10165 -0.590103 1.0647
                  CHANNELS 3 Zrotation Xrotation Yrotation
                  End Site
                  {
                    OFFSET -2.48547 -0.328903 0.83742
                  }
                }
              }
              JOINT rRing1
              {
                OFFSET -8.82822 0.546677 1.51678
                CHANNELS 3 Zrotation Xrotation Yrotation
                JOINT rRing2
                {
                  OFFSET -2.60934 -0.819778 -0.0198488
                  CHANNELS 3 Zrotation Xrotation Yrotation
                  End Site
                  {
                    OFFSET -2.33842 -0.294052 0.168128
                  }
                }
              }
              JOINT rPinky1
              {
                OFFSET -8.27202 -0.0477905 -0.4584
                CHANNELS 3 Zrotation Xrotation Yrotation
                JOINT rPinky2
                {
                  OFFSET -1.82734 -0.647385 -0.700984
                  CHANNELS 3 Zrotation Xrotation Yrotation
                  End Site
                  {
                    OFFSET -1.69225 -0.51767 -0.607171
                  }
                }
              }
            }
          }
        }
      }
      JOINT lCollar
      {
        OFFSET 2.68224 19.2634 -4.8768
        CHANNELS 3 Zrotation Xrotation Yrotation
        JOINT lShldr
        {
          OFFSET 8.77824 -1.95073 1.46304
          CHANNELS 3 Zrotation Xrotation Yrotation
          JOINT lForeArm
          {
            OFFSET 28.1742 -1.7115 0.48768
            CHANNELS 3 Zrotation Xrotation Yrotation
            JOINT lHand
            {
              OFFSET 22.5879 0.773209 7.07136
              CHANNELS 3 Zrotation Xrotation Yrotation
              JOINT lThumb1
              {
                OFFSET 1.2192 -0.487915 3.41376
                CHANNELS 3 Zrotation Xrotation Yrotation
                JOINT lThumb2
                {
                  OFFSET 3.37035 -0.52449 3.41376
                  CHANNELS 3 Zrotation Xrotation Yrotation
                  End Site
                  {
                    OFFSET 1.78271 -1.18214 1.43049
                  }
                }
              }
              JOINT lIndex1
              {
                OFFSET 7.75947 0.938293 5.60832
                CHANNELS 3 Zrotation Xrotation Yrotation
                JOINT lIndex2
                {
                  OFFSET 2.54057 -0.884171 1.56538
                  CHANNELS 3 Zrotation Xrotation Yrotation
                  End Site
                  {
                    OFFSET 1.62519 -0.234802 1.16502
                  }
                }
              }
              JOINT lMid1
              {
                OFFSET 8.24714 1.18213 3.41376
                CHANNELS 3 Zrotation Xrotation Yrotation
                JOINT lMid2
                {
                  OFFSET 3.10165 -0.590103 1.0647
                  CHANNELS 3 Zrotation Xrotation Yrotation
                  End Site
                  {
                    OFFSET 2.48547 -0.328903 0.83742
                  }
                }
              }
              JOINT lRing1
              {
                OFFSET 8.82822 0.546677 1.51678
                CHANNELS 3 Zrotation Xrotation Yrotation
                JOINT lRing2
                {
                  OFFSET 2.60934 -0.819778 -0.0198488
                  CHANNELS 3 Zrotation Xrotation Yrotation
                  End Site
                  {
                    OFFSET 2.33842 -0.294052 0.168128
                  }
                }
              }
              JOINT lPinky1
              {
                OFFSET 8.27202 -0.0477905 -0.4584
                CHANNELS 3 Zrotation Xrotation Yrotation
                JOINT lPinky2
                {
                  OFFSET 1.82734 -0.647385 -0.700984
                  CHANNELS 3 Zrotation Xrotation Yrotation
                  End Site
                  {
                    OFFSET 1.69225 -0.51767 -0.607171
                  }
                }
              }
            }
          }
        }
      }
    }
  }
  JOINT rButtock
  {
    OFFSET -8.77824 4.35084 1.2192
    CHANNELS 3 Zrotation Xrotation Yrotation
    JOINT rThigh
    {
      OFFSET 0 -1.70687 -2.19456
      CHANNELS 3 Zrotation Xrotation Yrotation
      JOINT rShin
      {
        OFFSET 0 -36.8199 0.73152
        CHANNELS 3 Zrotation Xrotation Yrotation
        JOINT rFoot
        {
          OFFSET 0.73152 -45.1104 -5.12064
          CHANNELS 3 Zrotation Xrotation Yrotation
          End Site
          {
            OFFSET -1.1221 -3.69964 12.103
          }
        }
      }
    }
  }
  JOINT lButtock
  {
    OFFSET 8.77824 4.35084 1.2192
    CHANNELS 3 Zrotation Xrotation Yrotation
    JOINT lThigh
    {
      OFFSET 0 -1.70687 -2.19456
      CHANNELS 3 Zrotation Xrotation Yrotation
      JOINT lShin
      {
        OFFSET 0 -36.8199 0.73152
        CHANNELS 3 Zrotation Xrotation Yrotation
        JOINT lFoot
        {
          OFFSET -0.73152 -45.1104 -5.12064
          CHANNELS 3 Zrotation Xrotation Yrotation
          End Site
          {
            OFFSET 1.1221 -3.69964 12.103
          }
        }
      }
    }
  }
}
MOTION
Frames: 7
Frame Time:	0.06666666
-45.2533 76.9612 -8.83281 -33.5038 59.9723 -19.9712 6.30375 16.5345 15.5633 0.837311 -8.49484 4.63741 -6.03638 -5.70946 -4.61374 9.47372 -11.1687 -6.01468 -0.0 0.0 0.0 -0.0 0.0 0.0 -1.19592e-13 -2.45698e-13 9.8458e-13 69.2188 40.128 -4.27078 -24.104 -49.2619 102.954 -0.182823 -12.0941 -1.72568 -2.00975e-09 -1.01641e-10 3.72265e-10 -3.48113e-09 -1.70961e-10 6.27319e-10 -2.00973e-09 -1.01642e-10 3.72243e-10 7.73091 5.47488 0.417314 -2.00975e-09 -1.01641e-10 3.72268e-10 2.90554 0.965183 0.102902 -2.00973e-09 -1.01641e-10 3.72244e-10 10.2786 0.731801 0.0259123 -2.00975e-09 -1.0164e-10 3.72274e-10 2.22167 -0.733487 -0.20892 -1.19653e-13 -2.45698e-13 9.84282e-13 -92.7339 41.0585 17.8499 25.5625 -47.0735 -97.8729 0.123131 -9.95585 1.4136 -2.69811e-09 5.60637e-09 -6.59091e-09 -4.62127e-09 9.7166e-09 -1.14222e-08 -2.69811e-09 5.60637e-09 -6.59089e-09 -7.73091 5.47488 -0.417314 -2.69811e-09 5.60637e-09 -6.59091e-09 -2.90554 0.965183 -0.102902 -2.69812e-09 5.60637e-09 -6.59091e-09 -10.2786 0.731801 -0.0259123 -2.6981e-09 5.60638e-09 -6.59092e-09 -2.22167 -0.733487 0.20892 -2.03217e-16 0.0 -3.88251e-19 1.00225 8.67159 -8.72094 0.0439143 25.0915 1.21659 -1.39664 -4.04577 -4.11856 2.03217e-16 0.0 3.88251e-19 15.285 -61.3594 30.2445 1.20057 62.824 -1.94141 0.956273 0.0734357 8.88551
-42.9184 77.5315 -6.96293 -36.9274 59.98 -22.3395 5.81411 15.5682 16.1308 -0.229441 -8.46569 4.68715 -6.13536 -6.05622 -4.58396 10.0701 -11.4938 -5.78934 -0.0 0.0 0.0 -0.0 0.0 0.0 -9.85409e-14 5.99852e-13 6.40782e-13 70.6417 40.8937 -4.52958 -24.2455 -49.0685 102.497 -0.191222 -12.3625 -1.7652 -1.19821e-09 -8.04603e-10 -2.46568e-09 -2.05476e-09 -1.39266e-09 -4.27247e-09 -1.19819e-09 -8.04608e-10 -2.46571e-09 7.73091 5.47488 0.417314 -1.19821e-09 -8.04609e-10 -2.46568e-09 2.90554 0.965183 0.102902 -1.1982e-09 -8.0461e-10 -2.4657e-09 10.2786 0.731801 0.0259123 -1.19822e-09 -8.04608e-10 -2.46568e-09 2.22167 -0.733487 -0.20892 -9.86258e-14 5.99851e-13 6.40543e-13 -92.8675 41.6621 18.4239 25.9889 -46.2988 -96.1778 0.140339 -10.6113 1.50884 -2.05849e-09 1.98002e-09 -2.65392e-10 -3.5649e-09 3.42717e-09 -4.74786e-10 -2.05849e-09 1.98001e-09 -2.65385e-10 -7.73091 5.47488 -0.417314 -2.05849e-09 1.98002e-09 -2.65398e-10 -2.90554 0.965183 -0.102902 -2.0585e-09 1.98002e-09 -2.65393e-10 -10.2786 0.731801 -0.0259123 -2.05848e-09 1.98002e-09 -2.65398e-10 -2.22167 -0.733487 0.20892 -2.03217e-16 0.0 -3.88251e-19 1.17278 8.92595 -7.5755 0.0561231 23.4059 1.11201 -0.798577 3.42582 -1.36728 2.03217e-16 0.0 3.88251e-19 12.4707 -60.9699 25.9388 1.24487 63.3345 -1.96971 1.20997 -1.51966 8.38999
-40.3637 77.7992 -6.0198 -36.2205 62.0959 -20.4857 5.20922 14.8438 16.1225 -0.97693 -8.51344 4.60388 -6.33766 -6.38407 -4.51767 10.8882 -11.6771 -5.44231 -0.0 0.0 0.0 -0.0 0.0 0.0 4.85987e-15 4.05669e-13 1.82981e-13 71.8864 41.9055 -4.78983 -24.592 -48.596 101.354 -0.208755 -12.9062 -1.84549 1.13816e-10 -1.27627e-09 -5.4096e-09 2.39785e-10 -2.2154e-09 -9.35162e-09 1.13836e-10 -1.27628e-09 -5.40963e-09 7.73091 5.47488 0.417314 1.13821e-10 -1.27628e-09 -5.4096e-09 2.90554 0.965183 0.102902 1.13822e-10 -1.27628e-09 -5.4096e-09 10.2786 0.731801 0.0259123 1.13807e-10 -1.27628e-09 -5.40959e-09 2.22167 -0.733487 -0.20892 4.73181e-15 4.05669e-13 1.82783e-13 -93.0171 41.9618 18.7241 26.458 -45.3285 -94.1379 0.163044 -11.4328 1.62867 -9.35117e-10 -2.6846e-09 6.82317e-09 -1.6751e-09 -4.6585e-09 1.17949e-08 -9.35119e-10 -2.68459e-09 6.82317e-09 -7.73091 5.47488 -0.417314 -9.35112e-10 -2.68459e-09 6.82316e-09 -2.90554 0.965183 -0.102902 -9.35125e-10 -2.68459e-09 6.82317e-09 -10.2786 0.731801 -0.0259123 -9.35115e-10 -2.68459e-09 6.82317e-09 -2.22167 -0.733487 0.20892 -2.03217e-16 0.0 -3.88251e-19 1.49606 8.74946 -6.05857 0.0487769 22.3348 0.999666 -0.861337 11.2875 0.946625 2.03217e-16 0.0 3.88251e-19 9.71957 -60.1513 21.7704 1.28557 63.7158 -1.96898 1.52387 -3.47803 8.14658
-37.8528 78.27 -4.01821 -38.0843 63.2366 -22.0486 3.76389 14.4724 15.7204 -0.18245 -8.53839 4.50624 -6.50785 -6.82638 -4.4147 11.0302 -11.5421 -5.11791 -0.0 0.0 0.0 -0.0 0.0 0.0 1.96089e-13 -3.17449e-12 2.42051e-14 72.6618 43.6752 -5.42915 -24.9867 -48.0004 99.9884 -0.214179 -13.0663 -1.86921 1.31753e-09 -7.71071e-10 -5.70832e-09 2.32908e-09 -1.34507e-09 -9.85949e-09 1.31754e-09 -7.71074e-10 -5.70834e-09 7.73091 5.47488 0.417314 1.31754e-09 -7.71076e-10 -5.70832e-09 2.90554 0.965183 0.102902 1.31754e-09 -7.71077e-10 -5.70832e-09 10.2786 0.731801 0.0259123 1.31752e-09 -7.71076e-10 -5.70831e-09 2.22167 -0.733487 -0.20892 1.95849e-13 -3.17449e-12 2.38976e-14 -93.15 41.3409 18.2437 26.9393 -44.2101 -91.8187 0.124124 -10.0634 1.42888 -1.73507e-10 -4.56344e-09 7.84797e-09 -3.57278e-10 -7.90346e-09 1.35673e-08 -1.73509e-10 -4.56343e-09 7.84798e-09 -7.73091 5.47488 -0.417314 -1.73503e-10 -4.56343e-09 7.84797e-09 -2.90554 0.965183 -0.102902 -1.73511e-10 -4.56343e-09 7.84797e-09 -10.2786 0.731801 -0.0259123 -1.73503e-10 -4.56343e-09 7.84796e-09 -2.22167 -0.733487 0.20892 -2.03217e-16 0.0 -3.88251e-19 2.49791 8.24239 -3.14621 0.0187153 22.4812 0.88821 -1.2837 18.4522 2.55968 2.03217e-16 0.0 3.88251e-19 8.64273 -58.5265 20.119 1.32212 63.9738 -1.9457 1.65146 -5.63982 7.18863
-35.5112 78.5838 -2.68463 -39.8208 65.0522 -22.9936 2.35312 14.4204 14.8355 0.768607 -8.56345 4.28557 -6.60428 -7.23984 -4.26194 10.8969 -11.5577 -4.73919 -0.0 0.0 0.0 -0.0 0.0 0.0 3.09468e-13 -5.69295e-12 -2.44505e-14 73.6158 45.4572 -6.22651 -25.4893 -47.1993 98.1521 -0.213081 -13.0364 -1.86476 1.91098e-09 -2.22479e-11 -4.15371e-09 3.34594e-09 -4.8847e-11 -7.16702e-09 1.91098e-09 -2.22464e-11 -4.15372e-09 7.73091 5.47488 0.417314 1.91098e-09 -2.22468e-11 -4.15371e-09 2.90554 0.965183 0.102902 1.91099e-09 -2.22473e-11 -4.15371e-09 10.2786 0.731801 0.0259123 1.91097e-09 -2.22456e-11 -4.1537e-09 2.22167 -0.733487 -0.20892 3.0917e-13 -5.69294e-12 -2.48481e-14 -93.1235 40.8756 17.2463 27.3311 -43.0596 -89.6034 0.0993293 -8.95298 1.26871 2.93313e-10 -4.42924e-09 5.71326e-09 4.74727e-10 -7.66114e-09 9.87388e-09 2.9331e-10 -4.42924e-09 5.71327e-09 -7.73091 5.47488 -0.417314 2.93314e-10 -4.42924e-09 5.71326e-09 -2.90554 0.965183 -0.102902 2.93311e-10 -4.42924e-09 5.71326e-09 -10.2786 0.731801 -0.0259123 2.93319e-10 -4.42924e-09 5.71324e-09 -2.22167 -0.733487 0.20892 -2.03217e-16 0.0 -3.88251e-19 3.33653 6.73303 -0.998303 -0.0350189 24.501 0.800509 -1.73073 23.5775 3.53661 2.03217e-16 0.0 3.88251e-19 7.48196 -56.786 18.8652 1.34844 64.0541 -1.88936 1.68632 -7.63791 6.29611
-33.2755 78.6037 -1.80599 -42.8831 67.0996 -25.315 2.05605 14.7708 13.246 0.532298 -8.6065 3.80521 -6.46453 -7.47892 -3.98388 10.5015 -12.3315 -4.17968 -0.0 0.0 0.0 -0.0 0.0 0.0 4.29764e-14 -1.07424e-12 -7.27428e-15 75.521 46.7894 -7.00856 -26.1271 -46.0567 95.6146 -0.20129 -12.6834 -1.8125 5.96895e-10 4.68523e-10 9.05004e-10 1.02486e-09 8.12949e-10 1.57372e-09 5.96897e-10 4.68525e-10 9.04996e-10 7.73091 5.47488 0.417314 5.96896e-10 4.68524e-10 9.04999e-10 2.90554 0.965183 0.102902 5.96903e-10 4.68524e-10 9.05002e-10 10.2786 0.731801 0.0259123 5.96886e-10 4.68528e-10 9.05011e-10 2.22167 -0.733487 -0.20892 4.28486e-14 -1.07424e-12 -7.56314e-15 -92.7522 41.6406 15.892 27.6101 -42.1098 -87.7963 0.137835 -10.6896 1.51933 4.47835e-11 -2.31421e-10 -8.04927e-10 9.57792e-11 -3.94534e-10 -1.39687e-09 4.47773e-11 -2.31419e-10 -8.04915e-10 -7.73091 5.47488 -0.417314 4.47811e-11 -2.31421e-10 -8.04925e-10 -2.90554 0.965183 -0.102902 4.47758e-11 -2.31421e-10 -8.04927e-10 -10.2786 0.731801 -0.0259123 4.47863e-11 -2.31421e-10 -8.04936e-10 -2.22167 -0.733487 0.20892 -2.03217e-16 0.0 -3.88251e-19 3.02547 3.29054 -2.06382 -0.121683 29.8496 0.778743 -1.79231 24.1921 3.84094 2.03217e-16 0.0 3.88251e-19 4.75826 -55.5596 16.284 1.3632 63.8964 -1.78564 1.81888 -8.90266 6.27022
-30.9926 78.6085 -1.15851 -44.3557 69.2081 -26.4373 1.63025 15.2877 11.5146 0.207277 -8.58165 3.26785 -6.31905 -7.68306 -3.76707 10.1642 -13.2738 -3.72286 -0.0 0.0 0.0 -0.0 0.0 0.0 -1.88884e-13 3.45205e-12 5.49143e-14 77.4695 47.3499 -7.8186 -26.7021 -44.7686 92.9884 -0.190149 -12.3294 -1.76031 -8.47608e-10 7.52103e-10 4.89108e-09 -1.51255e-09 1.31388e-09 8.45677e-09 -8.47604e-10 7.52104e-10 4.89107e-09 7.73091 5.47488 0.417314 -8.47608e-10 7.52103e-10 4.89108e-09 2.90554 0.965183 0.102902 -8.47602e-10 7.52102e-10 4.89108e-09 10.2786 0.731801 0.0259123 -8.47613e-10 7.52108e-10 4.89109e-09 2.22167 -0.733487 -0.20892 -1.88819e-13 3.45204e-12 5.47652e-14 -91.813 43.0199 13.7529 27.8178 -41.2836 -86.2542 0.195683 -12.504 1.78605 -3.02016e-10 3.38407e-09 -6.14882e-09 -4.65611e-10 5.86196e-09 -1.06361e-08 -3.02025e-10 3.38407e-09 -6.14882e-09 -7.73091 5.47488 -0.417314 -3.02021e-10 3.38407e-09 -6.14882e-09 -2.90554 0.965183 -0.102902 -3.02029e-10 3.38406e-09 -6.14882e-09 -10.2786 0.731801 -0.0259123 -3.02016e-10 3.38406e-09 -6.14882e-09 -2.22167 -0.733487 0.20892 -2.03217e-16 0.0 -3.88251e-19 1.61417 -1.05596 -4.37441 -0.243874 36.7317 0.804435 -1.40612 22.6778 3.01807 2.03217e-16 0.0 3.88251e-19 1.72659 -54.203 13.8539 1.36068 63.5241 -1.66087 1.86878 -9.84604 6.08963
